<svg width="150" height="200" viewBox="0 0 256 256" fill="none" xmlns="http://www.w3.org/2000/svg">
  <ellipse opacity="0.05" cx="128.889" cy="230.77" rx="99.517" ry="13.4992" fill="black"/>
  <path d="M180.212 229.32H75.7911C71.3534 229.32 67.7588 225.725 67.7588 221.288C67.7588 216.85 71.3534 213.255 75.7911 213.255H180.212C184.65 213.255 188.244 216.85 188.244 221.288C188.245 225.726 184.65 229.32 180.212 229.32Z" fill="#D6DBDC"/>
  <path d="M148.082 181.126V173.094H107.92V181.126C107.92 198.886 101.582 213.255 83.8223 213.255H172.178C154.419 213.255 148.082 198.886 148.082 181.126Z" fill="#AFB6BB"/>
  <path d="M232.417 181.126H23.584C16.9289 181.126 11.5312 175.728 11.5312 169.073V144.98H244.47V169.073C244.47 175.728 239.072 181.126 232.417 181.126Z" fill="#E7ECED"/>
  <path d="M140.049 169.078H115.952C113.735 169.078 111.936 167.278 111.936 165.061C111.936 162.844 113.735 161.045 115.952 161.045H140.049C142.266 161.045 144.066 162.844 144.066 165.061C144.066 167.278 142.266 169.078 140.049 169.078Z" fill="#AFB6BB"/>
  <path d="M212.34 4.41394H43.6609H23.584C16.9289 4.41394 11.5312 9.81157 11.5312 16.4662V148.997H43.6609H103.904H152.098H212.341H244.47V16.4662C244.47 9.81157 239.072 4.41348 232.417 4.41348H212.34V4.41394Z" fill="#495D72"/>
  <path d="M228.405 20.4785H119.968V148.997H228.405V20.4785Z" fill="#28384C"/>
  <path d="M128.001 20.4785H27.5957V148.997H128.001V20.4785Z" fill="#22303A"/>
  <path d="M71.7704 100.802C71.1681 100.802 70.5534 100.665 69.9752 100.38C67.9911 99.3884 67.1881 96.9744 68.1799 94.9903L80.2286 70.8935C81.2204 68.9094 83.6385 68.1064 85.6185 69.0982C87.6025 70.09 88.4055 72.504 87.4137 74.4881L75.3651 98.5849C74.6621 99.9908 73.2445 100.802 71.7704 100.802Z" fill="#51E199"/>
  <path d="M43.6608 88.7533C42.6326 88.7533 41.6044 88.3598 40.8214 87.5768C39.2509 86.0063 39.2509 83.4681 40.8214 81.898L52.8701 69.8493C54.4365 68.2788 56.9825 68.2788 58.5489 69.8493C60.1194 71.4198 60.1194 73.9581 58.5489 75.5281L46.5002 87.5768C45.7168 88.3598 44.689 88.7533 43.6608 88.7533Z" fill="#51E199"/>
  <path d="M55.709 100.802C54.6808 100.802 53.6526 100.408 52.8697 99.6254L40.8214 87.5768C39.2509 86.0063 39.2509 83.468 40.8214 81.898C42.3879 80.3275 44.9338 80.3275 46.5002 81.898L58.5489 93.9466C60.1194 95.5172 60.1194 98.0554 58.5489 99.6254C57.7655 100.408 56.7372 100.802 55.709 100.802Z" fill="#51E199"/>
  <path d="M111.935 88.7533C110.907 88.7533 109.879 88.3597 109.096 87.5768L97.047 75.5281C95.4765 73.9576 95.4765 71.4194 97.047 69.8493C98.6134 68.2788 101.159 68.2788 102.726 69.8493L114.774 81.898C116.345 83.4685 116.345 86.0067 114.774 87.5768C113.991 88.3597 112.963 88.7533 111.935 88.7533Z" fill="#51E199"/>
  <path d="M99.8864 100.802C98.8582 100.802 97.83 100.408 97.047 99.6254C95.4765 98.0549 95.4765 95.5167 97.047 93.9466L109.096 81.898C110.662 80.3275 113.208 80.3275 114.774 81.898C116.345 83.4685 116.345 86.0067 114.774 87.5768L102.726 99.6254C101.943 100.408 100.915 100.802 99.8864 100.802Z" fill="#51E199"/>
  <path d="M184.228 40.5595H144.066C141.849 40.5595 140.05 38.7601 140.05 36.5431C140.05 34.3261 141.849 32.5267 144.066 32.5267H184.228C186.445 32.5267 188.244 34.3261 188.244 36.5431C188.244 38.7601 186.445 40.5595 184.228 40.5595Z" fill="#66D1FF"/>
  <path d="M212.34 40.5595H200.292C198.075 40.5595 196.275 38.7601 196.275 36.5431C196.275 34.3261 198.075 32.5267 200.292 32.5267H212.34C214.557 32.5267 216.357 34.3261 216.357 36.5431C216.357 38.7601 214.557 40.5595 212.34 40.5595Z" fill="#FFC757"/>
  <path d="M212.34 56.6241H172.178C169.961 56.6241 168.162 54.8247 168.162 52.6077C168.162 50.3907 169.961 48.5913 172.178 48.5913H212.34C214.557 48.5913 216.357 50.3907 216.357 52.6077C216.357 54.8247 214.557 56.6241 212.34 56.6241Z" fill="#51E199"/>
  <path d="M156.115 56.6241H144.066C141.849 56.6241 140.05 54.8247 140.05 52.6077C140.05 50.3907 141.849 48.5913 144.066 48.5913H156.115C158.332 48.5913 160.131 50.3907 160.131 52.6077C160.131 54.8247 158.332 56.6241 156.115 56.6241Z" fill="#51E199"/>
  <path d="M184.228 72.6891H144.066C141.849 72.6891 140.05 70.8898 140.05 68.6728C140.05 66.4557 141.849 64.6564 144.066 64.6564H184.228C186.445 64.6564 188.244 66.4557 188.244 68.6728C188.244 70.8898 186.445 72.6891 184.228 72.6891Z" fill="#F76363"/>
  <path d="M212.34 72.6891H200.292C198.075 72.6891 196.275 70.8898 196.275 68.6728C196.275 66.4557 198.075 64.6564 200.292 64.6564H212.34C214.557 64.6564 216.357 66.4557 216.357 68.6728C216.357 70.8898 214.557 72.6891 212.34 72.6891Z" fill="#F76363"/>
  <path d="M212.34 88.7537H172.178C169.961 88.7537 168.162 86.9544 168.162 84.7373C168.162 82.5203 169.961 80.7209 172.178 80.7209H212.34C214.557 80.7209 216.357 82.5203 216.357 84.7373C216.357 86.9544 214.557 88.7537 212.34 88.7537Z" fill="#F76363"/>
  <path d="M156.115 88.7537H144.066C141.849 88.7537 140.05 86.9544 140.05 84.7373C140.05 82.5203 141.849 80.7209 144.066 80.7209H156.115C158.332 80.7209 160.131 82.5203 160.131 84.7373C160.131 86.9544 158.332 88.7537 156.115 88.7537Z" fill="#FFC757"/>
  <path d="M212.34 136.948H172.178C169.961 136.948 168.162 135.149 168.162 132.932C168.162 130.715 169.961 128.915 172.178 128.915H212.34C214.557 128.915 216.357 130.715 216.357 132.932C216.357 135.149 214.557 136.948 212.34 136.948Z" fill="#FFC757"/>
  <path d="M156.115 136.948H144.066C141.849 136.948 140.05 135.149 140.05 132.932C140.05 130.715 141.849 128.915 144.066 128.915H156.115C158.332 128.915 160.131 130.715 160.131 132.932C160.131 135.149 158.332 136.948 156.115 136.948Z" fill="#66D1FF"/>
  <path d="M184.228 104.818H144.066C141.849 104.818 140.05 103.019 140.05 100.802C140.05 98.5849 141.849 96.7856 144.066 96.7856H184.228C186.445 96.7856 188.244 98.5849 188.244 100.802C188.244 103.019 186.445 104.818 184.228 104.818Z" fill="#F76363"/>
  <path d="M212.34 104.818H200.292C198.075 104.818 196.275 103.019 196.275 100.802C196.275 98.5849 198.075 96.7856 200.292 96.7856H212.34C214.557 96.7856 216.357 98.5849 216.357 100.802C216.357 103.019 214.557 104.818 212.34 104.818Z" fill="#FFC757"/>
  <path d="M212.34 120.883H172.178C169.961 120.883 168.162 119.084 168.162 116.867C168.162 114.65 169.961 112.851 172.178 112.851H212.34C214.557 112.851 216.357 114.65 216.357 116.867C216.357 119.084 214.557 120.883 212.34 120.883Z" fill="#51E199"/>
  <path d="M156.115 120.883H144.066C141.849 120.883 140.05 119.084 140.05 116.867C140.05 114.65 141.849 112.851 144.066 112.851H156.115C158.332 112.851 160.131 114.65 160.131 116.867C160.131 119.084 158.332 120.883 156.115 120.883Z" fill="#51E199"/>
</svg>
